<?xml version="1.0" encoding="UTF-8" standalone="no"?>
<svg
   xmlns:dc="http://purl.org/dc/elements/1.1/"
   xmlns:cc="http://creativecommons.org/ns#"
   xmlns:rdf="http://www.w3.org/1999/02/22-rdf-syntax-ns#"
   xmlns:svg="http://www.w3.org/2000/svg"
   xmlns="http://www.w3.org/2000/svg"
   xmlns:xlink="http://www.w3.org/1999/xlink"
   id="svg8"
   version="1.1"
   viewBox="0 0 82.405257 16.065346"
   height="16.065346mm"
   width="82.405258mm">
  <defs
     id="defs2">
    <linearGradient
       id="linearGradient2824">
      <stop
         id="stop2826"
         style="stop-color:#687170;stop-opacity:1"
         offset="0" />
      <stop
         id="stop2828"
         style="stop-color:#687170;stop-opacity:0"
         offset="1" />
    </linearGradient>
    <linearGradient
       id="linearGradient2818">
      <stop
         id="stop2820"
         style="stop-color:#cad3d0;stop-opacity:1"
         offset="0" />
      <stop
         id="stop2822"
         style="stop-color:#95a09c;stop-opacity:1"
         offset="1" />
    </linearGradient>
    <linearGradient
       id="linearGradient2805">
      <stop
         id="stop2807"
         style="stop-color:#b9bebe;stop-opacity:1"
         offset="0" />
      <stop
         id="stop2809"
         style="stop-color:#586160;stop-opacity:1"
         offset="1" />
    </linearGradient>
    <linearGradient
       id="linearGradient2793">
      <stop
         id="stop2795"
         style="stop-color:#67706f;stop-opacity:1"
         offset="0" />
      <stop
         id="stop2797"
         style="stop-color:#d6dedc;stop-opacity:1"
         offset="1" />
    </linearGradient>
    <linearGradient
       id="linearGradient2786">
      <stop
         id="stop2788"
         style="stop-color:#60686b;stop-opacity:1"
         offset="0" />
      <stop
         id="stop2790"
         style="stop-color:#c5d1cd;stop-opacity:1"
         offset="1" />
    </linearGradient>
    <linearGradient
       id="linearGradient2778">
      <stop
         id="stop2780"
         style="stop-color:#707978;stop-opacity:1"
         offset="0" />
      <stop
         id="stop2782"
         style="stop-color:#d9dedc;stop-opacity:1"
         offset="1" />
    </linearGradient>
    <linearGradient
       id="linearGradient2770">
      <stop
         id="stop2772"
         style="stop-color:#eaeeed;stop-opacity:1"
         offset="0" />
      <stop
         id="stop2774"
         style="stop-color:#61696c;stop-opacity:1"
         offset="1" />
    </linearGradient>
    <linearGradient
       id="linearGradient2755">
      <stop
         id="stop2757"
         style="stop-color:#eaeeed;stop-opacity:1"
         offset="0" />
      <stop
         id="stop2832"
         style="stop-color:#d2ddd7;stop-opacity:1"
         offset="0.5" />
      <stop
         id="stop2759"
         style="stop-color:#5b6463;stop-opacity:1"
         offset="1" />
    </linearGradient>
    <linearGradient
       id="linearGradient2623">
      <stop
         id="stop2625"
         style="stop-color:#000000;stop-opacity:1"
         offset="0" />
      <stop
         id="stop2627"
         style="stop-color:#000000;stop-opacity:0"
         offset="1" />
    </linearGradient>
    <linearGradient
       x1="0"
       y1="0"
       x2="1"
       y2="0"
       id="linearGradient2589"
       gradientUnits="userSpaceOnUse"
       gradientTransform="matrix(0,-45.3476,-179.902,0,228.848,198.769)"
       spreadMethod="pad">
      <stop
         id="stop2591"
         style="stop-color:#c3cecb;stop-opacity:1"
         offset="0" />
      <stop
         id="stop2593"
         style="stop-color:#586262;stop-opacity:1"
         offset="1" />
    </linearGradient>
    <clipPath
       id="clipPath2581">
      <path
         d="m 118.658,159.491 0.024,-0.016 2.754,-4.855 c 5.605,-0.48 11.433,-0.753 17.46,-0.753 6.055,0 11.899,0.273 17.54,0.764 l 2.679,4.844 0.016,0.016 c -6.445,-0.614 -13.203,-0.953 -20.235,-0.953 -7.031,0 -13.792,0.339 -20.238,0.953 z m 107.408,34.14 c -0.687,-14.859 -23.527,-28.023 -57.287,-32.984 l 0.012,-0.012 3.293,-3.933 c 33.033,5.937 54.764,20.523 53.982,36.929 z m -174.339,0 c -0.782,-16.421 20.948,-30.992 53.974,-36.929 l 3.301,3.933 0.008,0.012 c -33.765,4.961 -56.588,18.125 -57.283,32.984"
         id="path2583" />
    </clipPath>
    <linearGradient
       x1="0"
       y1="0"
       x2="1"
       y2="0"
       id="linearGradient2569"
       gradientUnits="userSpaceOnUse"
       gradientTransform="matrix(0,-159.116,-187.934,0,232.859,231.7607)"
       spreadMethod="pad">
      <stop
         id="stop2571"
         style="stop-color:#eaeeec;stop-opacity:1"
         offset="0" />
      <stop
         id="stop2573"
         style="stop-color:#434d4e;stop-opacity:1"
         offset="1" />
    </linearGradient>
    <clipPath
       id="clipPath2561">
      <path
         d="m 52.18,198.124 c 3.308,13.097 43.314,32.159 86.716,32.159 43.399,0 82.03,-13.62 86.717,-32.159 5.246,-20.782 -33.308,-39.586 -86.717,-39.586 -53.417,0 -91.97,18.804 -86.716,39.586 z m 86.716,23.515 c -37.269,0 -70.432,-9.765 -74.456,-23.062 -4.507,-14.895 28.593,-28.371 74.456,-28.371 45.872,0 78.967,13.476 74.463,28.371 -4.023,13.297 -37.185,23.062 -74.463,23.062"
         id="path2563" />
    </clipPath>
    <linearGradient
       x1="0"
       y1="0"
       x2="1"
       y2="0"
       id="linearGradient2549"
       gradientUnits="userSpaceOnUse"
       gradientTransform="matrix(0,-159.122,-64.3047,0,171.053,231.7764)"
       spreadMethod="pad">
      <stop
         id="stop2551"
         style="stop-color:#eaeeec;stop-opacity:1"
         offset="0" />
      <stop
         id="stop2553"
         style="stop-color:#434d4e;stop-opacity:1"
         offset="1" />
    </linearGradient>
    <clipPath
       id="clipPath2541">
      <path
         d="m 108.748,151.144 c 0,38.526 13.504,70.495 30.148,70.495 16.653,0 30.157,-31.969 30.157,-70.495 0,-38.933 -13.504,-70.495 -30.157,-70.495 -16.652,0 -30.148,31.562 -30.148,70.495 z m 30.148,-48.839 c 11.223,0 20.325,22.094 20.325,51.249 0,30.257 -9.102,51.105 -20.325,51.105 -11.222,0 -20.316,-20.848 -20.316,-51.105 0,-29.155 9.094,-51.249 20.316,-51.249"
         id="path2543" />
    </clipPath>
    <linearGradient
       x1="0"
       y1="0"
       x2="1"
       y2="0"
       id="linearGradient2529"
       gradientUnits="userSpaceOnUse"
       gradientTransform="matrix(0,-159.111,-260.691,0,269.238,231.7671)"
       spreadMethod="pad">
      <stop
         id="stop2531"
         style="stop-color:#eaeeec;stop-opacity:1"
         offset="0" />
      <stop
         id="stop2533"
         style="stop-color:#434d4e;stop-opacity:1"
         offset="1" />
    </linearGradient>
    <clipPath
       id="clipPath2521">
      <path
         d="m 10.547,152.21 c 0,43.933 57.46,79.557 128.349,79.557 70.881,0 128.342,-35.624 128.342,-79.557 0,-43.944 -57.461,-79.553 -128.342,-79.553 -70.889,0 -128.349,35.609 -128.349,79.553 z M 138.896,80.649 c 63.292,0 114.608,32.125 114.608,71.757 0,39.636 -51.316,71.772 -114.608,71.772 -63.299,0 -114.611,-32.136 -114.611,-71.772 0,-39.632 51.312,-71.757 114.611,-71.757"
         id="path2523" />
    </clipPath>
    <linearGradient
       x1="0"
       y1="0"
       x2="1"
       y2="0"
       id="linearGradient2505"
       gradientUnits="userSpaceOnUse"
       gradientTransform="matrix(0,-130.035,-37.2852,0,140.896,232.4316)"
       spreadMethod="pad">
      <stop
         id="stop2507"
         style="stop-color:#eaeeec;stop-opacity:1"
         offset="0" />
      <stop
         id="stop2509"
         style="stop-color:#586262;stop-opacity:1"
         offset="1" />
    </linearGradient>
    <clipPath
       id="clipPath2497">
      <path
         d="m 108.748,151.144 c 0,3.214 0.106,6.378 0.285,9.491 h -0.023 l -3.289,-3.906 c -0.067,-1.848 -0.11,-3.698 -0.11,-5.585 0,-41.222 14.621,-70.495 33.285,-70.495 -16.644,0 -30.148,31.562 -30.148,70.495"
         id="path2499" />
    </clipPath>
    <linearGradient
       x1="0"
       y1="0"
       x2="1"
       y2="0"
       id="linearGradient2485"
       gradientUnits="userSpaceOnUse"
       gradientTransform="matrix(0,-130.035,-37.2813,0,174.178,232.4316)"
       spreadMethod="pad">
      <stop
         id="stop2487"
         style="stop-color:#eaeeec;stop-opacity:1"
         offset="0" />
      <stop
         id="stop2489"
         style="stop-color:#586262;stop-opacity:1"
         offset="1" />
    </linearGradient>
    <clipPath
       id="clipPath2477">
      <path
         d="m 172.072,156.717 -3.281,3.918 h -0.027 c 0.183,-3.113 0.289,-6.277 0.289,-9.491 0,-38.933 -13.504,-70.495 -30.157,-70.495 18.672,0 33.282,29.273 33.282,70.495 0,1.887 -0.039,3.737 -0.106,5.573"
         id="path2479" />
    </clipPath>
    <linearGradient
       x1="0"
       y1="0"
       x2="1"
       y2="0"
       id="linearGradient2465"
       gradientUnits="userSpaceOnUse"
       gradientTransform="matrix(0,-77.914,-35.3789,0,172.275,231.7759)"
       spreadMethod="pad">
      <stop
         id="stop2467"
         style="stop-color:#eaeeec;stop-opacity:1"
         offset="0" />
      <stop
         id="stop2469"
         style="stop-color:#586262;stop-opacity:1"
         offset="1" />
    </linearGradient>
    <clipPath
       id="clipPath2457">
      <path
         d="m 167.67,172.12 h 0.027 l 2.578,3.136 c -4.57,27.75 -16.914,46.383 -31.379,46.383 13.5,0 24.934,-21.031 28.774,-49.519"
         id="path2459" />
    </clipPath>
    <linearGradient
       x1="0"
       y1="0"
       x2="1"
       y2="0"
       id="linearGradient2445"
       gradientUnits="userSpaceOnUse"
       gradientTransform="matrix(0,-77.914,-35.3867,0,140.896,231.7759)"
       spreadMethod="pad">
      <stop
         id="stop2447"
         style="stop-color:#eaeeec;stop-opacity:1"
         offset="0" />
      <stop
         id="stop2449"
         style="stop-color:#586262;stop-opacity:1"
         offset="1" />
    </linearGradient>
    <clipPath
       id="clipPath2437">
      <path
         d="m 110.127,172.12 c 3.844,28.488 15.269,49.519 28.769,49.519 -14.472,0 -26.808,-18.633 -31.386,-46.383 l 2.578,-3.136 h 0.039"
         id="path2439" />
    </clipPath>
    <linearGradient
       x1="0"
       y1="0"
       x2="1"
       y2="0"
       id="linearGradient2425"
       gradientUnits="userSpaceOnUse"
       gradientTransform="matrix(-44.7229,25.8208,37.6374,65.1898,137.28,88.354)"
       spreadMethod="pad">
      <stop
         id="stop2427"
         style="stop-color:#eaeeec;stop-opacity:1"
         offset="0" />
      <stop
         id="stop2429"
         style="stop-color:#586262;stop-opacity:1"
         offset="1" />
    </linearGradient>
    <clipPath
       id="clipPath2417">
      <path
         d="m 159.092,159.452 -2.672,-4.832 c 0,-0.352 0.016,-0.714 0.016,-1.081 0,-25.726 -7.868,-45.234 -17.543,-45.234 -9.684,0 -17.536,19.508 -17.536,45.234 0,0.406 0.008,0.807 0.016,1.198 l -2.676,4.715 c -0.078,-1.93 -0.117,-3.883 -0.117,-5.886 0,-29.167 9.094,-51.261 20.316,-51.261 11.223,0 20.325,22.094 20.325,51.261 0,2.003 -0.051,3.956 -0.129,5.886"
         id="path2419" />
    </clipPath>
    <linearGradient
       x1="0"
       y1="0"
       x2="1"
       y2="0"
       id="linearGradient2405"
       gradientUnits="userSpaceOnUse"
       gradientTransform="matrix(-30.6717,25.7366,36.0326,42.9419,140.42,149.995)"
       spreadMethod="pad">
      <stop
         id="stop2407"
         style="stop-color:#eaeeec;stop-opacity:1"
         offset="0" />
      <stop
         id="stop2409"
         style="stop-color:#586262;stop-opacity:1"
         offset="1" />
    </linearGradient>
    <clipPath
       id="clipPath2397">
      <path
         d="m 123.014,173.436 c 2.793,15.52 8.851,25.219 15.879,25.219 7.035,0 13.089,-9.699 15.886,-25.219 h 0.055 l 3.266,-2.371 c -2.758,20.496 -10.313,33.594 -19.204,33.594 -8.898,0 -16.449,-13.098 -19.203,-33.594 l 3.266,2.371 h 0.055"
         id="path2399" />
    </clipPath>
    <linearGradient
       x1="0"
       y1="0"
       x2="1"
       y2="0"
       id="linearGradient2385"
       gradientUnits="userSpaceOnUse"
       gradientTransform="matrix(0,49.1242,159.899,0,58.9482,158.5869)"
       spreadMethod="pad">
      <stop
         id="stop2387"
         style="stop-color:#eaeeec;stop-opacity:1"
         offset="0" />
      <stop
         id="stop2389"
         style="stop-color:#586262;stop-opacity:1"
         offset="1" />
    </linearGradient>
    <clipPath
       id="clipPath2377">
      <path
         d="m 154.818,173.436 c -5.05,-0.379 -10.375,-0.586 -15.925,-0.586 -5.547,0 -10.868,0.207 -15.918,0.586 h -0.016 l -3.301,-2.398 c 6.09,-0.532 12.52,-0.832 19.238,-0.832 6.719,0 13.149,0.3 19.243,0.832 z m 58.541,25.141 c -4.023,13.297 -37.185,23.062 -74.463,23.062 -37.269,0 -70.432,-9.765 -74.456,-23.062 -3.492,-11.535 15.571,-22.211 45.644,-26.446 l -2.613,3.18 c -24.328,4.141 -38.788,12.969 -35.452,22.356 4.043,11.394 33.409,19.648 66.874,19.648 33.464,0 62.837,-8.254 66.877,-19.648 3.332,-9.387 -11.122,-18.215 -35.456,-22.356 l -2.605,-3.18 c 30.064,4.235 49.139,14.911 45.65,26.446"
         id="path2379" />
    </clipPath>
    <linearGradient
       x1="0"
       y1="0"
       x2="1"
       y2="0"
       id="linearGradient2365"
       gradientUnits="userSpaceOnUse"
       gradientTransform="matrix(0,90.6552,233.215,0,22.2891,89.512)"
       spreadMethod="pad">
      <stop
         id="stop2367"
         style="stop-color:#eaeeec;stop-opacity:1"
         offset="0" />
      <stop
         id="stop2369"
         style="stop-color:#586262;stop-opacity:1"
         offset="1" />
    </linearGradient>
    <clipPath
       id="clipPath2357">
      <path
         d="m 225.129,199.67 c 0.184,-0.507 0.351,-1.027 0.484,-1.546 0.754,-2.997 0.598,-5.938 -0.379,-8.805 13.008,-10.727 20.676,-23.957 20.676,-38.292 0,-35.78 -47.914,-64.792 -107.014,-64.792 -59.104,0 -107.013,29.012 -107.013,64.792 0,14.323 7.676,27.565 20.668,38.292 -0.969,2.867 -1.125,5.808 -0.371,8.805 0.136,0.531 0.359,1.093 0.621,1.652 -17.75,-12.645 -28.512,-29.219 -28.512,-47.37 0,-39.632 51.308,-71.757 114.607,-71.757 63.292,0 114.608,32.125 114.608,71.757 0,18.112 -10.719,34.647 -28.375,47.264"
         id="path2359" />
    </clipPath>
    <clipPath
       id="clipPath2323">
      <path
         d="M 0.06,233.771 H 283 V 0.06 H 0.06 Z"
         id="path2325" />
    </clipPath>
    <clipPath
       id="clipPath3085">
      <path
         d="m 118.658,159.491 0.024,-0.016 2.754,-4.855 c 5.605,-0.48 11.433,-0.753 17.46,-0.753 6.055,0 11.899,0.273 17.54,0.764 l 2.679,4.844 0.016,0.016 c -6.445,-0.614 -13.203,-0.953 -20.235,-0.953 -7.031,0 -13.792,0.339 -20.238,0.953 z m 107.408,34.14 c -0.687,-14.859 -23.527,-28.023 -57.287,-32.984 l 0.012,-0.012 3.293,-3.933 c 33.033,5.937 54.764,20.523 53.982,36.929 z m -174.339,0 c -0.782,-16.421 20.948,-30.992 53.974,-36.929 l 3.301,3.933 0.008,0.012 c -33.765,4.961 -56.588,18.125 -57.283,32.984"
         id="path3087" />
    </clipPath>
    <clipPath
       id="clipPath3065">
      <path
         d="m 52.18,198.124 c 3.308,13.097 43.314,32.159 86.716,32.159 43.399,0 82.03,-13.62 86.717,-32.159 5.246,-20.782 -33.308,-39.586 -86.717,-39.586 -53.417,0 -91.97,18.804 -86.716,39.586 z m 86.716,23.515 c -37.269,0 -70.432,-9.765 -74.456,-23.062 -4.507,-14.895 28.593,-28.371 74.456,-28.371 45.872,0 78.967,13.476 74.463,28.371 -4.023,13.297 -37.185,23.062 -74.463,23.062"
         id="path3067" />
    </clipPath>
    <clipPath
       id="clipPath3045">
      <path
         d="m 108.748,151.144 c 0,38.526 13.504,70.495 30.148,70.495 16.653,0 30.157,-31.969 30.157,-70.495 0,-38.933 -13.504,-70.495 -30.157,-70.495 -16.652,0 -30.148,31.562 -30.148,70.495 z m 30.148,-48.839 c 11.223,0 20.325,22.094 20.325,51.249 0,30.257 -9.102,51.105 -20.325,51.105 -11.222,0 -20.316,-20.848 -20.316,-51.105 0,-29.155 9.094,-51.249 20.316,-51.249"
         id="path3047" />
    </clipPath>
    <clipPath
       id="clipPath3025">
      <path
         d="m 10.547,152.21 c 0,43.933 57.46,79.557 128.349,79.557 70.881,0 128.342,-35.624 128.342,-79.557 0,-43.944 -57.461,-79.553 -128.342,-79.553 -70.889,0 -128.349,35.609 -128.349,79.553 z M 138.896,80.649 c 63.292,0 114.608,32.125 114.608,71.757 0,39.636 -51.316,71.772 -114.608,71.772 -63.299,0 -114.611,-32.136 -114.611,-71.772 0,-39.632 51.312,-71.757 114.611,-71.757"
         id="path3027" />
    </clipPath>
    <clipPath
       id="clipPath3001">
      <path
         d="m 108.748,151.144 c 0,3.214 0.106,6.378 0.285,9.491 h -0.023 l -3.289,-3.906 c -0.067,-1.848 -0.11,-3.698 -0.11,-5.585 0,-41.222 14.621,-70.495 33.285,-70.495 -16.644,0 -30.148,31.562 -30.148,70.495"
         id="path3003" />
    </clipPath>
    <clipPath
       id="clipPath2981">
      <path
         d="m 172.072,156.717 -3.281,3.918 h -0.027 c 0.183,-3.113 0.289,-6.277 0.289,-9.491 0,-38.933 -13.504,-70.495 -30.157,-70.495 18.672,0 33.282,29.273 33.282,70.495 0,1.887 -0.039,3.737 -0.106,5.573"
         id="path2983" />
    </clipPath>
    <clipPath
       id="clipPath2961">
      <path
         d="m 167.67,172.12 h 0.027 l 2.578,3.136 c -4.57,27.75 -16.914,46.383 -31.379,46.383 13.5,0 24.934,-21.031 28.774,-49.519"
         id="path2963" />
    </clipPath>
    <clipPath
       id="clipPath2941">
      <path
         d="m 110.127,172.12 c 3.844,28.488 15.269,49.519 28.769,49.519 -14.472,0 -26.808,-18.633 -31.386,-46.383 l 2.578,-3.136 h 0.039"
         id="path2943" />
    </clipPath>
    <clipPath
       id="clipPath2921">
      <path
         d="m 159.092,159.452 -2.672,-4.832 c 0,-0.352 0.016,-0.714 0.016,-1.081 0,-25.726 -7.868,-45.234 -17.543,-45.234 -9.684,0 -17.536,19.508 -17.536,45.234 0,0.406 0.008,0.807 0.016,1.198 l -2.676,4.715 c -0.078,-1.93 -0.117,-3.883 -0.117,-5.886 0,-29.167 9.094,-51.261 20.316,-51.261 11.223,0 20.325,22.094 20.325,51.261 0,2.003 -0.051,3.956 -0.129,5.886"
         id="path2923" />
    </clipPath>
    <clipPath
       id="clipPath2901">
      <path
         d="m 123.014,173.436 c 2.793,15.52 8.851,25.219 15.879,25.219 7.035,0 13.089,-9.699 15.886,-25.219 h 0.055 l 3.266,-2.371 c -2.758,20.496 -10.313,33.594 -19.204,33.594 -8.898,0 -16.449,-13.098 -19.203,-33.594 l 3.266,2.371 h 0.055"
         id="path2903" />
    </clipPath>
    <clipPath
       id="clipPath2881">
      <path
         d="m 154.818,173.436 c -5.05,-0.379 -10.375,-0.586 -15.925,-0.586 -5.547,0 -10.868,0.207 -15.918,0.586 h -0.016 l -3.301,-2.398 c 6.09,-0.532 12.52,-0.832 19.238,-0.832 6.719,0 13.149,0.3 19.243,0.832 z m 58.541,25.141 c -4.023,13.297 -37.185,23.062 -74.463,23.062 -37.269,0 -70.432,-9.765 -74.456,-23.062 -3.492,-11.535 15.571,-22.211 45.644,-26.446 l -2.613,3.18 c -24.328,4.141 -38.788,12.969 -35.452,22.356 4.043,11.394 33.409,19.648 66.874,19.648 33.464,0 62.837,-8.254 66.877,-19.648 3.332,-9.387 -11.122,-18.215 -35.456,-22.356 l -2.605,-3.18 c 30.064,4.235 49.139,14.911 45.65,26.446"
         id="path2883" />
    </clipPath>
    <clipPath
       id="clipPath2861">
      <path
         d="m 225.129,199.67 c 0.184,-0.507 0.351,-1.027 0.484,-1.546 0.754,-2.997 0.598,-5.938 -0.379,-8.805 13.008,-10.727 20.676,-23.957 20.676,-38.292 0,-35.78 -47.914,-64.792 -107.014,-64.792 -59.104,0 -107.013,29.012 -107.013,64.792 0,14.323 7.676,27.565 20.668,38.292 -0.969,2.867 -1.125,5.808 -0.371,8.805 0.136,0.531 0.359,1.093 0.621,1.652 -17.75,-12.645 -28.512,-29.219 -28.512,-47.37 0,-39.632 51.308,-71.757 114.607,-71.757 63.292,0 114.608,32.125 114.608,71.757 0,18.112 -10.719,34.647 -28.375,47.264"
         id="path2863" />
    </clipPath>
    <clipPath
       id="clipPath2827">
      <path
         d="M 0.06,233.771 H 283 V 0.06 H 0.06 Z"
         id="path2829" />
    </clipPath>
    <linearGradient
       x1="140.46986"
       y1="81.19545"
       x2="139.99696"
       y2="200.87436"
       id="linearGradient2749"
       xlink:href="#linearGradient2770"
       gradientUnits="userSpaceOnUse"
       gradientTransform="matrix(1.8857058,0,0,-1.8857058,104.73353,689.6477)" />
    <linearGradient
       x1="364.52673"
       y1="255.99554"
       x2="364.52673"
       y2="552.63251"
       id="linearGradient2761"
       xlink:href="#linearGradient2755"
       gradientUnits="userSpaceOnUse" />
    <linearGradient
       x1="343.815"
       y1="305.70374"
       x2="396.62994"
       y2="367.06943"
       id="linearGradient2776"
       xlink:href="#linearGradient2778"
       gradientUnits="userSpaceOnUse" />
    <linearGradient
       x1="364.52673"
       y1="273.60052"
       x2="364.52673"
       y2="368.7131"
       id="linearGradient2784"
       xlink:href="#linearGradient2786"
       gradientUnits="userSpaceOnUse" />
    <linearGradient
       x1="330.35236"
       y1="393.72864"
       x2="399.73669"
       y2="496.73056"
       id="linearGradient2799"
       xlink:href="#linearGradient2793"
       gradientUnits="userSpaceOnUse" />
    <linearGradient
       x1="364.18744"
       y1="389.5863"
       x2="364.18744"
       y2="537.55157"
       id="linearGradient2811"
       xlink:href="#linearGradient2805"
       gradientUnits="userSpaceOnUse" />
    <linearGradient
       x1="367.88486"
       y1="271.80649"
       x2="367.88486"
       y2="365.10205"
       id="linearGradient2816"
       xlink:href="#linearGradient2818"
       gradientUnits="userSpaceOnUse" />
    <linearGradient
       x1="202.23689"
       y1="362.00821"
       x2="531.06604"
       y2="362.00821"
       id="linearGradient2830"
       xlink:href="#linearGradient2824"
       gradientUnits="userSpaceOnUse" />
  </defs>
  <metadata
     id="metadata5">
    <rdf:RDF>
      <cc:Work
         rdf:about="">
        <dc:format>image/svg+xml</dc:format>
        <dc:type
           rdf:resource="http://purl.org/dc/dcmitype/StillImage" />
        <dc:title></dc:title>
      </cc:Work>
    </rdf:RDF>
  </metadata>
  <g
     transform="translate(92.772208,72.553708)"
     id="layer1">
    <g
       id="text4639"
       style="font-style:normal;font-variant:normal;font-weight:bold;font-stretch:normal;font-size:10.58333302px;line-height:1.25;font-family:Tahoma;-inkscape-font-specification:'Tahoma Bold';letter-spacing:0px;word-spacing:0px;fill:#000000;fill-opacity:1;stroke:none;stroke-width:0.26458332"
       transform="skewX(-21.310402)"
       aria-label="Auto-Bok">
      <path
         id="path4641"
         style="stroke-width:0.26458332"
         d="m -102.6969,-60.693089 2.59933,-7.69462 h 2.108393 l 2.599325,7.69462 h -1.989543 l -0.48059,-1.570963 h -2.418455 l -0.48059,1.570963 z m 4.413168,-2.966227 -0.785482,-2.537312 -0.785482,2.537312 z" />
      <path
         id="path4643"
         style="stroke-width:0.26458332"
         d="m -89.328207,-60.693089 h -1.808675 v -0.640787 q -0.470255,0.392741 -0.862996,0.599446 -0.392741,0.201538 -0.935343,0.201538 -0.862997,0 -1.348755,-0.542602 -0.480591,-0.54777 -0.480591,-1.643311 v -3.777547 h 1.81901 v 2.878377 q 0,0.449585 0.02067,0.733806 0.02584,0.28422 0.113688,0.480591 0.08268,0.180867 0.253215,0.273885 0.175699,0.09302 0.485758,0.09302 0.191203,0 0.449585,-0.09302 0.26355,-0.09302 0.485758,-0.253215 v -4.113444 h 1.808675 z" />
      <path
         id="path4645"
         style="stroke-width:0.26458332"
         d="m -85.716024,-60.5794 q -1.105876,0 -1.612305,-0.454753 -0.501262,-0.454753 -0.501262,-1.488281 v -2.713013 h -0.692464 v -1.260905 h 0.692464 v -1.658813 h 1.808676 v 1.658813 h 1.741495 v 1.260905 h -1.741495 v 2.056722 q 0,0.304891 0.0052,0.532267 0.0052,0.227377 0.08268,0.408244 0.07235,0.180868 0.253214,0.289388 0.186035,0.103353 0.537435,0.103353 0.144694,0 0.377238,-0.06201 0.237711,-0.06201 0.330729,-0.113688 h 0.155029 v 1.276408 q -0.294555,0.07751 -0.625285,0.118856 -0.330729,0.04651 -0.811319,0.04651 z" />
      <path
         id="path4647"
         style="stroke-width:0.26458332"
         d="m -77.96456,-63.592136 q 0,1.431437 -0.785481,2.25826 -0.780315,0.821655 -2.211752,0.821655 -1.421102,0 -2.211751,-0.821655 -0.785482,-0.826823 -0.785482,-2.25826 0,-1.44694 0.785482,-2.263428 0.790649,-0.821655 2.211751,-0.821655 1.42627,0 2.211752,0.826823 0.785481,0.821655 0.785481,2.25826 z m -1.855184,0.01034 q 0,-0.516764 -0.08785,-0.857829 -0.08268,-0.346232 -0.232543,-0.552938 -0.160197,-0.217041 -0.361735,-0.299723 -0.201539,-0.08785 -0.459921,-0.08785 -0.242879,0 -0.439249,0.07751 -0.196371,0.07235 -0.361735,0.28422 -0.15503,0.201538 -0.248047,0.552938 -0.09302,0.3514 -0.09302,0.883667 0,0.532267 0.08785,0.862996 0.08785,0.325562 0.227376,0.521932 0.144694,0.201538 0.361735,0.294556 0.217041,0.09302 0.480591,0.09302 0.217041,0 0.43925,-0.09302 0.227376,-0.09302 0.361735,-0.279053 0.160197,-0.222208 0.242879,-0.532267 0.08268,-0.315226 0.08268,-0.868164 z" />
      <path
         id="path4649"
         style="stroke-width:0.26458332"
         d="m -73.701255,-63.369928 h -3.426147 v -1.436604 h 3.426147 z" />
      <path
         id="path4651"
         style="stroke-width:0.26458332"
         d="m -66.177166,-63.049534 q 0,0.573609 -0.217041,1.007691 -0.217041,0.434082 -0.583943,0.718302 -0.434082,0.341064 -0.956014,0.485758 -0.516765,0.144694 -1.317749,0.144694 h -3.079915 v -7.69462 h 2.71818 q 0.847493,0 1.281575,0.06718 0.43925,0.06201 0.821656,0.268718 0.413411,0.222208 0.614949,0.594279 0.206706,0.37207 0.206706,0.857828 0,0.563274 -0.284221,1.002523 -0.279052,0.43925 -0.775146,0.645956 v 0.04134 q 0.713135,0.149861 1.142049,0.614949 0.428914,0.45992 0.428914,1.245402 z m -2.475301,-3.162597 q 0,-0.186035 -0.09819,-0.382406 -0.09302,-0.19637 -0.294555,-0.28422 -0.191203,-0.08268 -0.454753,-0.08785 -0.258382,-0.01034 -0.775147,-0.01034 h -0.134358 v 1.627808 h 0.242879 q 0.496094,0 0.692464,-0.01033 0.201538,-0.01034 0.413412,-0.108521 0.232544,-0.10852 0.320393,-0.299723 0.08785,-0.191203 0.08785,-0.444417 z m 0.485759,3.126424 q 0,-0.356568 -0.144694,-0.558106 -0.144694,-0.201538 -0.434082,-0.304891 -0.1757,-0.06718 -0.485759,-0.07235 -0.304891,-0.01033 -0.821655,-0.01033 h -0.356567 v 1.927531 h 0.103353 q 0.754476,0 1.043864,-0.01033 0.289388,-0.01034 0.589111,-0.139527 0.26355,-0.113688 0.382405,-0.330729 0.124024,-0.222209 0.124024,-0.501261 z" />
      <path
         id="path4653"
         style="stroke-width:0.26458332"
         d="m -59.609093,-63.592136 q 0,1.431437 -0.785482,2.25826 -0.780314,0.821655 -2.211751,0.821655 -1.421102,0 -2.211751,-0.821655 -0.785482,-0.826823 -0.785482,-2.25826 0,-1.44694 0.785482,-2.263428 0.790649,-0.821655 2.211751,-0.821655 1.42627,0 2.211751,0.826823 0.785482,0.821655 0.785482,2.25826 z m -1.855184,0.01034 q 0,-0.516764 -0.08785,-0.857829 -0.08268,-0.346232 -0.232544,-0.552938 -0.160197,-0.217041 -0.361735,-0.299723 -0.201538,-0.08785 -0.45992,-0.08785 -0.242879,0 -0.43925,0.07751 -0.19637,0.07235 -0.361735,0.28422 -0.155029,0.201538 -0.248046,0.552938 -0.09302,0.3514 -0.09302,0.883667 0,0.532267 0.08785,0.862996 0.08785,0.325562 0.227376,0.521932 0.144694,0.201538 0.361735,0.294556 0.217041,0.09302 0.480591,0.09302 0.217041,0 0.43925,-0.09302 0.227376,-0.09302 0.361735,-0.279053 0.160197,-0.222208 0.242879,-0.532267 0.08268,-0.315226 0.08268,-0.868164 z" />
      <path
         id="path4655"
         style="stroke-width:0.26458332"
         d="m -52.839479,-60.693089 h -2.14974 l -1.570963,-2.526977 -0.279053,0.377238 v 2.149739 h -1.808675 v -8.040852 h 1.808675 v 4.506185 l 1.715658,-2.268596 h 2.134236 l -2.030883,2.50114 z" />
    </g>
    <g
       transform="matrix(0.02350074,0,0,0.02350074,-93.18856,-72.848068)"
       id="layer1-4">
      <path
         d="m 268.06536,631.62635 v 62.53583 h -13.16303 v -62.53583 h -15.79961 v -11.19189 h 44.7626 v 11.19189 z m 41.68381,0 c -9.87484,0 -15.79996,11.18941 -15.79996,26.33067 0,15.14126 5.92512,25.67197 15.79996,25.67197 9.87449,0 15.79961,-10.53071 15.79961,-25.67197 0,-15.14126 -5.92512,-26.33067 -15.79961,-26.33067 z m 0,64.50945 c -20.40803,0 -29.62169,-17.77323 -29.62169,-38.17878 0,-20.40555 9.21366,-38.17878 29.62169,-38.17878 20.4052,0 29.62134,17.77323 29.62134,38.17878 0,20.40555 -9.21614,38.17878 -29.62134,38.17878 z m 112.48689,-1.31492 c -17.11488,0 -23.03752,-10.53319 -23.69622,-25.01362 h 12.50681 c 0,6.58169 3.29067,13.82173 11.18941,13.82173 6.58382,0 10.53319,-3.29067 10.53319,-8.55744 0,-4.60772 -3.29067,-7.24004 -17.11453,-15.14126 -9.87484,-5.26394 -16.45618,-11.18941 -16.45618,-21.7226 0,-11.18941 7.23756,-19.08815 22.37882,-19.08815 16.45866,0 22.3813,10.53071 23.04,23.03752 H 431.4522 c 0,-6.58134 -3.29102,-11.84811 -9.87484,-11.84811 -5.26429,0 -9.21366,2.63445 -9.21366,7.24252 0,4.60559 3.94937,7.24004 14.48043,13.16551 11.85059,6.58134 19.09063,11.18941 19.09063,23.69622 0,13.16764 -11.18941,20.40768 -23.6987,20.40768 z m -38.33823,-0.6587 -21.72259,-39.49583 h 3.94937 c 4.60807,0 12.50681,-1.3174 12.50681,-11.85059 0,-9.21366 -7.89874,-11.18941 -13.16551,-11.18941 h -7.90122 v 62.53583 h -13.16304 v -73.72772 h 24.35492 c 14.48256,0 24.35493,7.24252 24.35493,21.06638 0,13.16551 -7.89626,18.42945 -12.50433,20.40555 l 19.08814,32.25579 z M 213.87756,631.62635 c -9.87484,0 -15.79748,11.18941 -15.79748,26.33067 0,15.14126 5.92264,25.67197 15.79748,25.67197 9.87201,0 15.79748,-10.53071 15.79748,-25.67197 0,-15.14126 -5.92547,-26.33067 -15.79748,-26.33067 z m 0,64.50945 c -20.40803,0 -29.62382,-17.77323 -29.62382,-38.17878 0,-20.40555 9.21579,-38.17878 29.62382,-38.17878 20.40768,0 29.62382,17.77323 29.62382,38.17878 0,20.40555 -9.21614,38.17878 -29.62382,38.17878 z m -47.3974,-1.97362 v -48.05327 l -16.45618,34.88811 -15.7996,-34.88811 v 48.05327 h -13.16552 v -73.72772 h 14.48256 l 14.48256,33.57319 15.13914,-33.57319 h 14.48255 v 73.72772 z M 402.8563,591.60116 c -17.1124,0 -23.03752,-10.53071 -23.69622,-25.01363 h 12.50681 c 0,6.58418 3.29067,13.82422 11.18941,13.82422 6.58382,0 10.53567,-3.29067 10.53567,-8.55993 0,-4.60807 -3.29067,-7.24003 -17.11488,-15.13877 -9.87697,-5.26678 -16.45831,-11.18941 -16.45831,-21.7226 0,-11.18977 7.24004,-19.09063 22.3813,-19.09063 16.45618,0 22.3813,10.53319 23.04,23.04 h -12.50929 c -0.65622,-6.58418 -3.94689,-11.85059 -10.53071,-11.85059 -5.26677,0 -9.21614,2.63445 -9.21614,7.24252 0,4.60807 3.94937,7.24252 14.48291,13.16515 11.84811,6.58418 19.09063,11.18977 19.09063,23.6987 0,13.16552 -11.19189,20.40556 -23.70118,20.40556 z m 96.77019,-0.65871 v -73.72558 h 13.16303 v 73.72558 z m -142.18901,0 v -73.72558 h 13.16516 v 73.72558 z m 116.51456,0 v -32.25578 h -26.98936 v 32.25578 h -13.82386 v -73.72558 h 13.82386 v 28.96299 h 26.33102 v -28.96299 h 13.82386 v 73.72558 z M 323.86642,558.68667 h -5.2689 v -11.84811 h 5.2689 c 6.58169,0 10.53106,-2.63232 10.53106,-9.21614 0,-6.58134 -4.60807,-9.21615 -10.53106,-9.21615 h -9.87697 v 51.34678 h 10.53567 c 7.23756,0 11.84563,-3.29067 11.84563,-11.19189 0,-7.24004 -4.60807,-9.87449 -12.50433,-9.87449 z m 3.94937,32.25578 h -26.99185 v -73.72558 h 24.3574 c 13.82634,0 22.3813,6.58381 22.3813,18.43192 0,9.87485 -7.24004,15.79748 -10.53319,16.45618 4.61055,1.31741 13.16764,6.5817 13.16764,18.43193 0,11.84811 -9.21579,20.40555 -22.3813,20.40555 z m -59.90386,1.31741 c -11.84811,0 -25.67445,-4.60807 -25.67445,-24.35741 v -50.68558 h 13.16516 v 50.68558 c 0,7.89874 3.95185,12.5093 12.50929,12.5093 7.24004,0 11.19189,-4.61056 11.19189,-12.5093 v -50.68558 h 13.16303 v 50.68558 c 0,19.09063 -13.16303,24.35741 -24.35492,24.35741 z m -54.87519,0.6587 c -17.11489,0 -23.04,-11.18977 -23.6987,-25.01611 h 12.50929 c 0,6.58382 3.29067,13.168 11.18941,13.168 6.58381,0 10.53318,-3.29103 10.53318,-8.55992 0,-4.60808 -3.29066,-6.58134 -17.11452,-14.48256 -9.87484,-5.923 -16.45866,-11.84811 -16.45866,-22.37918 0,-11.19189 7.24252,-19.09063 22.3813,-19.09063 16.45618,0 22.38129,10.53107 23.03999,23.04 h -13.16515 c 0,-5.92511 -3.29103,-11.84811 -9.87484,-11.84811 -5.92264,0 -9.21579,2.63233 -9.21579,7.2404 0,5.26393 3.94937,7.89874 14.48256,13.16515 11.85023,6.5817 19.09063,11.8506 19.09063,23.69622 0,13.82422 -11.19189,21.06674 -23.6987,21.06674 z m -40.15488,-64.51229 v 62.53618 H 159.7167 v -62.53618 h -15.79748 v -11.1894 h 44.7626 v 11.1894 z m -48.05575,62.53618 v -73.72558 h 13.16764 v 73.72558 z m -25.011143,0 V 542.88919 L 83.356661,577.77942 67.5567,542.88919 v 48.05326 H 54.393669 V 517.21687 H 68.876228 L 83.356661,550.78793 98.49792,517.21687 H 112.978 v 73.72558 z"
         style="fill-rule:evenodd"
         id="_46749392" />
      <path
         d="M 283.1354,319.53754 194.66079,166.36109 283.1354,12.525579 372.26693,166.36109 Z M 372.26693,472.71612 283.1354,319.53754 h 177.60436 l 88.47283,153.17858 z m -177.60614,0 H 17.716544 L 106.18867,319.53754 H 283.1354 Z"
         style="fill:#ff0000;fill-rule:evenodd"
         id="_48318832" />
    </g>
    <g
       transform="matrix(0.02715302,0,0,0.02715302,-27.724927,-77.037927)"
       id="g2834">
      <path
         d="m 366.65625,248.8125 c -135.53321,-1e-5 -245.8125,69.001 -245.8125,153.8125 0,84.80208 110.27928,153.8125 245.8125,153.8125 135.53322,-2e-5 245.78125,-69.01043 245.78125,-153.8125 -10e-6,-84.81149 -110.24804,-153.8125 -245.78125,-153.8125 z m 0,7.5625 c 131.37713,0 238.25,65.61533 238.25,146.25 2e-5,80.65542 -106.87288,146.25 -238.25,146.25 -131.37711,0 -238.25,-65.59459 -238.25,-146.25 0,-80.63466 106.87288,-146.25 238.25,-146.25 z m -11.34375,19.65625 -11.875,0.75 C 285.90837,280.29431 244.12231,295.53658 237,315.625 c -0.73732,2.0837 -1.125,4.20616 -1.125,6.3125 0,3.3886 0.97609,6.78972 2.875,10.03125 7.98596,13.60537 32.76289,24.79521 68.03125,30.8125 l 3.71875,0.625 0.65625,-3.71875 c 5.78912,-35.3136 18.49387,-63.07618 34.875,-76.1875 z m 22.71875,0 9.25,7.46875 c 16.37547,13.11131 29.08589,40.87389 34.875,76.1875 l 0.625,3.71875 3.71875,-0.625 c 35.28344,-6.0173 60.07546,-17.20713 68.03125,-30.8125 3.09256,-5.23095 3.69712,-10.89406 1.78125,-16.34375 -7.12232,-20.08843 -48.90839,-35.33068 -106.4375,-38.84375 z m -44.375,9.0625 c -13.45829,15.22706 -23.81809,39.7608 -29.21875,69.5625 -30.65781,-5.6722 -52.70633,-15.44977 -59.1875,-26.5 -1.23137,-2.09125 -1.84375,-4.15471 -1.84375,-6.1875 0,-1.28227 0.23116,-2.53965 0.6875,-3.8125 5.4365,-15.344 42.38214,-28.73858 89.5625,-33.0625 z m 66.03125,0 c 47.16527,4.32391 84.0786,17.74114 89.5,33.0625 0.47143,1.27284 0.6875,2.53022 0.6875,3.8125 10e-6,2.0328 -0.6113,4.09625 -1.8125,6.1875 -6.5038,11.05023 -28.54478,20.82779 -59.1875,26.5 -5.40065,-29.80169 -15.72922,-54.33543 -29.1875,-69.5625 z m -33.03125,25.9375 c -15.45335,-10e-6 -28.0778,19.04159 -33.75,50.90625 l -0.75,4.09375 4.1875,0.3125 c 9.87166,0.73731 20.07312,1.15625 30.3125,1.15625 10.24503,0 20.44083,-0.41893 30.3125,-1.15625 l 4.15625,-0.3125 -0.75,-4.09375 c -5.67218,-31.86465 -18.27859,-50.90625 -33.71875,-50.90625 z m 0,7.5625 c 10.55619,0 20.30273,15.7924 25.4375,40.46875 -8.34612,0.54497 -16.84245,0.875 -25.4375,0.875 -8.58186,0 -17.09891,-0.33003 -25.4375,-0.875 5.11968,-24.67635 14.8832,-40.46875 25.4375,-40.46875 z m -161.28125,7.84375 -4.78125,4 c -25.85491,21.65732 -39.53125,47.37466 -39.53125,74.40625 1e-5,63.58977 77.56066,117.34027 180.375,125 l 11.46875,0.875 -8.75,-7.46875 c -22.52664,-19.26815 -36.5,-65.00714 -36.5,-119.34375 l 0.21875,-12.8125 -3.15625,-0.65625 c -54.08016,-9.69442 -92.55327,-32.44168 -98.03125,-57.90625 z m 322.53125,0 -1.3125,6.09375 c -5.47234,25.46456 -43.96806,48.21184 -98.03125,57.90625 l -3.15625,0.59375 0.25,12.875 c 10e-6,54.3366 -14.01215,100.07561 -36.53125,119.34375 l -8.71875,7.46875 11.46875,-0.875 c 102.82564,-7.65971 180.34375,-61.41023 180.34375,-125 -2e-5,-27.03159 -13.67634,-52.74892 -39.53125,-74.40625 z m -326.75,13.6875 c 9.89053,25.73047 46.85593,47.1515 99.09375,57.125 -0.066,2.94546 -0.125,6.65625 -0.125,6.65625 -10e-6,50.38228 11.93742,93.89985 31.65625,117.375 -93.67999,-9.99616 -163.15625,-58.9329 -163.15625,-116.4375 1e-5,-23.1791 11.30198,-45.39781 32.53125,-64.71875 z m 330.96875,0 c 21.24436,19.32095 32.5625,41.53965 32.5625,64.71875 10e-6,57.5046 -69.49621,106.44137 -163.1875,116.4375 19.71884,-23.47518 31.6875,-66.99271 31.6875,-117.375 -10e-6,-10e-6 -0.0722,-3.71078 -0.125,-6.65625 52.22272,-9.97351 89.17009,-31.39454 99.0625,-57.125 z m -202.25,53.84375 -0.0312,4.09375 -0.0312,1.375 c 0,50.50674 15.84453,88.59375 36.84375,88.59375 20.99357,-10e-6 36.8125,-38.08701 36.8125,-88.59375 l -0.0312,-5.46875 -4.0625,0.34375 c -10.68066,0.93531 -21.66852,1.40625 -32.71875,1.40625 -11.04834,0 -22.06828,-0.47094 -32.71875,-1.40625 z m 7.53125,8.125 c 9.59071,0.70713 19.3953,1.15625 29.25,1.15625 9.87168,0 19.6461,-0.44911 29.25,-1.15625 -0.56571,46.99366 -15.37875,78.40625 -29.25,78.40625 -13.88444,-10e-6 -28.69749,-31.41258 -29.25,-78.40625 z"
         id="path2843"
         style="fill:#000000;fill-opacity:1;fill-rule:nonzero;stroke:none" />
      <path
         d="m 529.26059,313.12882 c 0.34697,0.95606 0.66188,1.93662 0.91268,2.9153 1.42182,5.65146 1.12765,11.19733 -0.71468,16.60364 24.52926,20.22797 38.98885,45.17586 38.98885,72.20745 0,67.47055 -90.3517,122.17865 -201.79692,122.17865 -111.45275,0 -201.79503,-54.7081 -201.79503,-122.17865 0,-27.00896 14.47468,-51.97948 38.97377,-72.20745 -1.82725,-5.40631 -2.12142,-10.95218 -0.6996,-16.60364 0.25645,-1.00131 0.67697,-2.06107 1.17102,-3.11518 -33.47128,23.84475 -53.76524,55.09844 -53.76524,89.32588 0,74.73429 96.75179,135.31259 216.11508,135.31259 119.35009,0 216.11697,-60.5783 216.11697,-135.31259 0,-34.1539 -20.21288,-65.33405 -53.5069,-89.126"
         id="path2875"
         style="fill:url(#linearGradient2749);fill-opacity:1;stroke:none" />
      <g
         id="g2597">
        <path
           d="m 371.36479,642.06191 c -0.0792,-26.29616 21.11236,-47.51035 47.58578,-47.55561 25.82474,0.0453 47.03516,21.25945 47.55185,47.55561 -0.51669,26.002 -21.72711,47.21619 -47.55185,47.58579 -26.47342,-0.3696 -47.66498,-21.58379 -47.58578,-47.58579 z m 47.58578,30.05438 c 14.28988,-0.22251 26.11891,-13.65062 26.26788,-30.05438 -0.14897,-16.72055 -11.978,-30.14866 -26.26788,-30.05249 -14.90839,-0.0962 -26.76759,13.33194 -26.29616,30.05249 -0.47143,16.40376 11.38777,29.83187 26.29616,30.05438"
           id="path2831"
           style="fill:#ff0000;fill-opacity:1;fill-rule:nonzero;stroke:none" />
        <path
           d="m 520.32612,614.51364 v 72.62796 h -20.01488 v -72.62796 h -28.80039 v -16.24913 h 76.36354 v 16.24913 h -27.54827"
           id="path2833"
           style="fill:#ff0000;fill-opacity:1;fill-rule:nonzero;stroke:none" />
        <path
           d="m 571.64371,667.08523 v 0 l -7.49002,20.05637 h -23.77121 l 37.54629,-88.87709 h 25.02143 l 36.31492,88.87709 h -23.7712 l -7.51265,-20.05637 z m 18.80615,-15.00456 h 12.50034 l -12.50034,-32.5586 -12.52109,32.5586 h 12.52109"
           id="path2835"
           style="fill:#ff0000;fill-opacity:1;fill-rule:nonzero;stroke:none" />
        <path
           d="m 152.29669,614.51364 v 72.62796 h -20.02808 v -72.62796 h -27.53508 v -16.24913 h 75.11143 v 16.24913 h -27.54827"
           id="path2837"
           style="fill:#ff0000;fill-opacity:1;fill-rule:nonzero;stroke:none" />
        <path
           d="m 184.8534,642.06191 c 0.0377,-26.29616 21.22173,-47.51035 47.54618,-47.55561 25.98503,0.0453 47.19922,21.25945 47.5839,47.55561 -0.38468,26.002 -21.59887,47.21619 -47.5839,47.58579 -26.32445,-0.3696 -47.50847,-21.58379 -47.54618,-47.58579 z m 47.54618,30.05438 c 14.4596,-0.22251 26.28109,-13.65062 26.29429,-30.05438 -0.0132,-16.72055 -11.83469,-30.14866 -26.29429,-30.05249 -14.7613,-0.0962 -26.60353,13.33194 -26.25845,30.05249 -0.34508,16.40376 11.49715,29.83187 26.25845,30.05438"
           id="path2839"
           style="fill:#ff0000;fill-opacity:1;fill-rule:nonzero;stroke:none" />
        <path
           d="m 325.04808,687.1416 h 10.00367 v -33.80882 l 35.06092,-55.06826 h -22.52475 l -22.53984,37.53685 -21.28774,-37.53685 h -23.77686 l 35.06093,55.06826 v 33.80882 h 10.00367"
           id="path2841"
           style="fill:#ff0000;fill-opacity:1;fill-rule:nonzero;stroke:none" />
      </g>
      <path
         d="m 396.67473,362.59843 c -9.52281,0.71468 -19.5642,1.10502 -30.02986,1.10502 -10.46001,0 -20.49385,-0.39034 -30.01667,-1.10502 h -0.0302 l -6.22472,4.52192 c 11.48395,1.0032 23.60904,1.56891 36.27721,1.56891 12.67006,0 24.79515,-0.56571 36.28664,-1.56891 z m 110.3911,-47.40853 c -7.58619,-25.07423 -70.11997,-43.48815 -140.41531,-43.48815 -70.27837,0 -132.81403,18.41392 -140.40211,43.48815 -6.58488,21.75162 29.36233,41.88341 86.07116,49.86937 l -4.92735,-5.99654 c -45.87545,-7.80871 -73.14276,-24.45572 -66.85204,-42.15684 7.6239,-21.48573 62.99954,-37.05035 126.10469,-37.05035 63.10325,0 118.49209,15.56462 126.11034,37.05035 6.28317,17.70112 -20.97282,34.34813 -66.85958,42.15684 l -4.91227,5.99654 c 56.69186,-7.98596 92.6617,-28.11775 86.08247,-49.86937"
         id="path2885"
         style="fill:#ebeeec;fill-opacity:1;fill-rule:nonzero;stroke:none" />
      <path
         d="m 396.67473,362.59843 c -9.52281,0.71468 -19.5642,1.10502 -30.02986,1.10502 -10.46001,0 -20.49385,-0.39034 -30.01667,-1.10502 h -0.0302 l -6.22472,4.52192 c 11.48395,1.0032 23.60904,1.56891 36.27721,1.56891 12.67006,0 24.79515,-0.56571 36.28664,-1.56891 z m 110.3911,-47.40853 c -7.58619,-25.07423 -70.11997,-43.48815 -140.41531,-43.48815 -70.27837,0 -132.81403,18.41392 -140.40211,43.48815 -6.58488,21.75162 29.36233,41.88341 86.07116,49.86937 l -4.92735,-5.99654 c -45.87545,-7.80871 -73.14276,-24.45572 -66.85204,-42.15684 7.6239,-21.48573 62.99954,-37.05035 126.10469,-37.05035 63.10325,0 118.49209,15.56462 126.11034,37.05035 6.28317,17.70112 -20.97282,34.34813 -66.85958,42.15684 l -4.91227,5.99654 c 56.69186,-7.98596 92.6617,-28.11775 86.08247,-49.86937"
         id="path2895"
         style="fill:url(#linearGradient2784);fill-opacity:1;stroke:none" />
      <path
         d="m 336.70174,362.59843 c 5.26678,-29.26616 16.69039,-47.55562 29.94313,-47.55562 13.26594,0 24.682,18.28946 29.95632,47.55562 h 0.10371 l 6.15872,4.47101 c -5.20078,-38.64943 -19.44729,-63.3484 -36.2131,-63.3484 -16.77901,0 -31.01797,24.69897 -36.21121,63.3484 l 6.15872,-4.47101 h 0.10371"
         id="path2905"
         style="fill:#ebeeec;fill-opacity:1;fill-rule:nonzero;stroke:none" />
      <path
         d="m 336.70174,362.59843 c 5.26678,-29.26616 16.69039,-47.55562 29.94313,-47.55562 13.26594,0 24.682,18.28946 29.95632,47.55562 h 0.10371 l 6.15872,4.47101 c -5.20078,-38.64943 -19.44729,-63.3484 -36.2131,-63.3484 -16.77901,0 -31.01797,24.69897 -36.21121,63.3484 l 6.15872,-4.47101 h 0.10371"
         id="path2915"
         style="fill:url(#linearGradient2776);fill-opacity:1;stroke:none" />
      <path
         d="m 404.73424,388.96814 -5.03861,9.11173 c 0,0.66377 0.0302,1.34639 0.0302,2.03845 0,48.51166 -14.83673,85.29801 -33.08093,85.29801 -18.26118,0 -33.06774,-36.78635 -33.06774,-85.29801 0,-0.7656 0.0151,-1.52177 0.0302,-2.25908 l -5.04615,-8.8911 c -0.14708,3.63941 -0.22063,7.32219 -0.22063,11.09926 0,55.00038 17.14861,96.66317 38.31,96.66317 21.16328,0 38.32697,-41.66279 38.32697,-96.66317 0,-3.77707 -0.0962,-7.45985 -0.24325,-11.09926"
         id="path2925"
         style="fill:#ebeeec;fill-opacity:1;fill-rule:nonzero;stroke:none" />
      <path
         d="m 404.73424,388.96814 -5.03861,9.11173 c 0,0.66377 0.0302,1.34639 0.0302,2.03845 0,48.51166 -14.83673,85.29801 -33.08093,85.29801 -18.26118,0 -33.06774,-36.78635 -33.06774,-85.29801 0,-0.7656 0.0151,-1.52177 0.0302,-2.25908 l -5.04615,-8.8911 c -0.14708,3.63941 -0.22063,7.32219 -0.22063,11.09926 0,55.00038 17.14861,96.66317 38.31,96.66317 21.16328,0 38.32697,-41.66279 38.32697,-96.66317 0,-3.77707 -0.0962,-7.45985 -0.24325,-11.09926"
         id="path2935"
         style="fill:url(#linearGradient2799);fill-opacity:1;stroke:none" />
      <path
         d="m 364.09375,271.8125 c -26.18321,2.11042 -48.26201,36.65068 -56.625,87.34375 l 4.84375,5.9375 h 0.0937 c 7.02215,-52.04124 27.46024,-90.90428 51.875,-93.28125 -0.0615,0.005 -0.12603,-0.005 -0.1875,0 z m 4.9375,0 c 24.41576,2.37697 44.86017,41.24001 51.875,93.28125 h 0.0625 l 4.84375,-5.9375 c -8.36511,-50.7947 -30.54039,-85.35953 -56.78125,-87.34375 z"
         id="path2945"
         style="fill:url(#linearGradient2816);fill-opacity:1;fill-rule:nonzero;stroke:none" />
      <path
         d="m 310.28125,386.75 -6.1875,7.34375 c -0.12633,3.48479 -0.21875,6.97293 -0.21875,10.53125 10e-6,76.518 26.71943,131.21605 61.125,132.90625 -30.62235,-2.04481 -55.1875,-60.78258 -55.1875,-132.90625 0,-6.06066 0.19371,-12.0048 0.53125,-17.875 z m 112.6875,0 c 0.34509,5.87021 0.5625,11.81434 0.5625,17.875 -10e-6,72.14531 -24.59872,130.89481 -55.25,132.90625 34.41935,-1.69018 61.125,-56.38825 61.125,-132.90625 0,-3.55832 -0.0612,-7.03784 -0.1875,-10.5 l -6.1875,-7.375 z"
         id="path2985"
         style="fill:url(#linearGradient2811);fill-opacity:1;fill-rule:nonzero;stroke:none" />
      <path
         d="m 529.45858,332.64777 c 9.37762,7.73517 17.28815,16.17559 23.47704,25.14023 -2.18931,-14.58405 -8.00671,-27.99141 -16.49993,-39.26039 -2.33639,-1.84234 -4.71426,-3.66204 -7.17511,-5.39878 0.34697,0.95606 0.66188,1.93662 0.91268,2.9153 1.42183,5.65146 1.12766,11.19733 -0.71468,16.60364"
         id="path3017"
         style="fill:#343d3b;fill-opacity:1;fill-rule:nonzero;stroke:none" />
      <path
         d="m 203.82925,332.64777 c -1.82725,-5.40631 -2.12142,-10.95218 -0.69959,-16.60364 0.25645,-1.00131 0.67697,-2.06107 1.17102,-3.11518 -2.55702,1.84233 -5.02352,3.70541 -7.43345,5.59866 -8.47814,11.26898 -14.29742,24.67634 -16.49993,39.26039 6.18889,-8.96464 14.08434,-17.40506 23.46195,-25.14023"
         id="path3019"
         style="fill:#343d3b;fill-opacity:1;fill-rule:nonzero;stroke:none" />
      <path
         d="m 366.65625,252.59375 c -133.6758,0 -242.03125,67.18654 -242.03125,150.03125 0,82.86546 108.35546,149.99997 242.03125,150 133.66072,0 242.00001,-67.13454 242,-150 0,-82.84471 -108.33927,-150.03125 -242,-150.03125 z m 0,19.09375 c 70.29534,0 132.82006,18.42576 140.40625,43.5 6.57809,21.75413 -29.38789,41.89432 -86.125,49.875 -7.24289,-53.73101 -28.8163,-93.375 -54.28125,-93.375 z m 0,0 c -25.45117,0 -47.03885,39.64399 -54.28125,93.375 -56.73155,-7.98068 -92.70747,-28.12087 -86.125,-49.875 7.58808,-25.07423 70.12789,-43.5 140.40625,-43.5 z m 0,32.03125 c 16.77677,0 31.02677,24.71031 36.21875,63.375 -11.46961,1.01516 -23.57304,1.59375 -36.21875,1.59375 -12.64323,0 -24.75062,-0.57859 -36.21875,-1.59375 5.18799,-38.66469 19.44348,-63.375 36.21875,-63.375 z m -162.4375,9.25 c -0.47831,1.03822 -0.8401,2.05825 -1.09375,3.0625 -7.93838,31.39995 37.16457,60.39819 107.21875,70.6875 -0.34396,5.86789 -0.53125,11.83789 -0.53125,17.90625 0,73.41619 25.44299,132.93753 56.84375,132.9375 31.40266,0 56.87499,-59.52131 56.875,-132.9375 0,-6.06818 -0.1873,-12.03853 -0.53125,-17.90625 70.0173,-10.29611 115.1118,-39.29543 107.1875,-70.6875 -0.24427,-0.96618 -0.5341,-1.92336 -0.875,-2.875 33.27805,23.80637 53.46874,54.97165 53.46875,89.09375 0,74.73429 -96.7749,135.31253 -216.125,135.3125 -119.36329,0 -216.12499,-60.57821 -216.125,-135.3125 0,-34.20661 20.26243,-65.45254 53.6875,-89.28125 z M 328.5625,388.9375 c 12.13509,1.15065 24.86882,1.75 38.09375,1.75 13.2275,0 25.9563,-0.59858 38.09375,-1.75 0.14815,3.63357 0.21875,7.35915 0.21875,11.15625 0,54.97775 -17.14921,96.62501 -38.3125,96.625 -21.16139,0 -38.3125,-41.64725 -38.3125,-96.625 0,-3.7971 0.0707,-7.52268 0.21875,-11.15625 z"
         id="path3029"
         style="fill:url(#linearGradient2761);fill-opacity:1;fill-rule:nonzero;stroke:none" />
      <path
         d="m 328.48761,388.8946 0.0453,0.0302 5.19323,9.1551 c 10.56938,0.90514 21.55927,1.41994 32.92442,1.41994 11.41795,0 22.43802,-0.5148 33.07528,-1.44068 l 5.05181,-9.13436 0.0302,-0.0302 c -12.15337,1.15782 -24.89697,1.79707 -38.15726,1.79707 -13.25839,0 -26.00765,-0.63925 -38.16291,-1.79707 z m 202.53989,-64.378 c -1.29548,28.0197 -44.365,52.84313 -108.02643,62.19812 l 0.0226,0.0226 6.20963,7.41648 c 62.29055,-11.19541 103.26882,-38.70031 101.7942,-69.6372 z m -328.75207,0 c -1.47462,30.96518 39.50177,58.44179 101.77909,69.63723 l 6.22471,-7.41648 0.0151,-0.0226 C 246.62346,377.35973 203.586,352.5363 202.27543,324.5166"
         id="path3089"
         style="fill:#c3cecb;fill-opacity:1;fill-rule:nonzero;stroke:none" />
      <path
         d="m 328.48761,388.8946 0.0453,0.0302 5.19323,9.1551 c 10.56938,0.90514 21.55927,1.41994 32.92442,1.41994 11.41795,0 22.43802,-0.5148 33.07528,-1.44068 l 5.05181,-9.13436 0.0302,-0.0302 c -12.15337,1.15782 -24.89697,1.79707 -38.15726,1.79707 -13.25839,0 -26.00765,-0.63925 -38.16291,-1.79707 z m 202.53989,-64.378 c -1.29548,28.0197 -44.365,52.84313 -108.02643,62.19812 l 0.0226,0.0226 6.20963,7.41648 c 62.29055,-11.19541 103.26882,-38.70031 101.7942,-69.6372 z m -328.75207,0 c -1.47462,30.96518 39.50177,58.44179 101.77909,69.63723 l 6.22471,-7.41648 0.0151,-0.0226 C 246.62346,377.35973 203.586,352.5363 202.27543,324.5166"
         id="path3099"
         style="fill:url(#linearGradient2830);fill-opacity:1;stroke:none" />
    </g>
  </g>
</svg>
